<?xml version="1.0" encoding="UTF-8"?>
<svg fill="none" viewBox="0 0 51 50" xmlns="http://www.w3.org/2000/svg">
    <g clip-path="url(#c)">
        <g clip-path="url(#b)">
            <g clip-path="url(#a)">
                <path d="m25.82 50c13.807 0 25-11.193 25-25s-11.193-25-25-25c-13.807 0-25 11.193-25 25s11.193 25 25 25z" fill="#696FFF"/>
                <path d="m19.882 15.912c-0.2603-0.3237-6.7318 1.1008-9.062 7.8978 0 0 1.0974-2.0717 3.7528-4.0782 1.9657-1.4853 4.25-2.0831 5.3564-2.3727 0.3883-0.1016 0.6315-0.1653 0.6649-0.216 0.1256-0.1906-0.4248-0.8741-0.6932-1.2074l-0.0189-0.0235zm11.876 0.2725c0.2583-0.3236 6.732 1.0992 9.0618 7.8961 0 0-1.1011-2.0699-3.755-4.0764-1.965-1.4857-4.2487-2.0835-5.3546-2.373-0.3877-0.1015-0.6307-0.165-0.6643-0.2157-0.1257-0.1877 0.4086-0.853 0.6805-1.1916l0.0316-0.0394zm7.4791 17.883c0.1235-0.2268-0.7656-10.661-4.924-11.079-0.9302-0.095-1.701 0.3869-2.3462 0.9145-0.8191 0.6682-1.4705 1.6178-2.0066 3.1654-0.4971 1.428-1.0445 5.3567-0.9231 5.5976 0.1558 0.3119 0.5088 0.2338 1.236 0.073 0.7572-0.1675 1.92-0.4247 3.688-0.4247 1.8845-0.0033 3.3903 0.8753 4.3086 1.4112 0.5384 0.3141 0.8749 0.5105 0.9673 0.3421zm-21.986-11.255c-4.277-0.0528-4.8766 11.009-4.7483 11.255 0.089 0.1696 0.4241-0.026 0.9619-0.3399 0.9182-0.536 2.4272-1.4167 4.3105-1.4134 1.7666 0 2.9294 0.2571 3.6869 0.4246 0.7278 0.1609 1.0815 0.2391 1.2373-0.0729 0.1193-0.2409-0.4261-4.1696-0.9231-5.5976-0.4096-1.1987-1.098-2.2834-2.0066-3.1654-0.3263-0.3403-0.717-0.6121-1.1495-0.7993-0.4324-0.1873-0.8979-0.2862-1.3691-0.2911z" clip-rule="evenodd" fill="#fff" fill-rule="evenodd"/>
            </g>
        </g>
    </g>
    <defs>
        <clipPath id="c">
            <rect transform="translate(.82007)" width="50" height="50" fill="#fff"/>
        </clipPath>
        <clipPath id="b">
            <rect transform="translate(.82007)" width="50" height="50" fill="#fff"/>
        </clipPath>
        <clipPath id="a">
            <rect transform="translate(.82007)" width="50" height="50" fill="#fff"/>
        </clipPath>
    </defs>
</svg>
