<?xml version="1.0" encoding="UTF-8"?>
<svg fill="none" viewBox="0 0 51 50" xmlns="http://www.w3.org/2000/svg">
    <g clip-path="url(#b)">
        <g clip-path="url(#a)">
            <path d="m25.656 49.02c13.536 0 24.51-10.974 24.51-24.51 0-13.536-10.973-24.51-24.51-24.51s-24.51 10.973-24.51 24.51c0 13.536 10.973 24.51 24.51 24.51z" fill="#696FFF"/>
            <path d="m32.142 14.009c0.2714-0.3001 6.5387-0.2887 8.221 8.3107 0 0-0.9262-2.097-3.353-4.2323-1.7999-1.5824-3.9661-2.3158-5.0121-2.6698-0.3648-0.1235-0.5933-0.201-0.6225-0.2521-0.1071-0.1895 0.4451-0.8008 0.7304-1.1165 0.0127-0.014 0.0247-0.0273 0.0362-0.04zm-21.191 10.643c1.6825-8.5985 7.9499-8.61 8.2211-8.3118l0.0217 0.0239c0.2804 0.3092 0.8543 0.9418 0.7445 1.1346-0.0291 0.0511-0.2578 0.1286-0.6227 0.2521-1.0459 0.3541-3.2116 1.0873-5.011 2.6688-2.4274 2.1335-3.3536 4.2324-3.3536 4.2324zm9.1631 1.9039c0.4321-0.2218 0.8049-0.5439 1.0868-0.9376 1.8333 0 3.3177 1.6936 3.3177 3.784 0 2.9162-3.9523 5.1174-5.8001 5.6928-1.8475-0.5754-5.8004-2.7766-5.8004-5.6928 0-2.0904 1.4848-3.784 3.3174-3.784 0.2828 0.3937 0.6555 0.7158 1.0874 0.9376 0.4318 0.2218 0.9101 0.3374 1.3956 0.3374 0.4854 0 0.9637-0.1156 1.3956-0.3374zm14.684 0c0.432-0.2218 0.8048-0.5439 1.0876-0.9376 1.8314 0 3.3158 1.6936 3.3158 3.784 0 2.9162-3.9532 5.1174-5.7989 5.6928-1.8476-0.5754-5.7999-2.7766-5.7999-5.6928 0-2.0904 1.4843-3.784 3.3157-3.784 0.2829 0.3937 0.6557 0.7158 1.0877 0.9376 0.4321 0.2218 0.9099 0.3374 1.3955 0.3374s0.9644-0.1156 1.3965-0.3374z" clip-rule="evenodd" fill="#fff" fill-rule="evenodd"/>
        </g>
    </g>
    <defs>
        <clipPath id="b">
            <rect transform="translate(.82007)" width="50" height="49.02" fill="#fff"/>
        </clipPath>
        <clipPath id="a">
            <rect transform="translate(.82007 .00024414)" width="50" height="49.02" fill="#fff"/>
        </clipPath>
    </defs>
</svg>
