<?xml version="1.0" encoding="UTF-8"?>
<svg fill="none" viewBox="0 0 12 14" xmlns="http://www.w3.org/2000/svg">
    <path d="m8.5 4c0 1.3807-1.1193 2.5-2.5 2.5s-2.5-1.1193-2.5-2.5 1.1193-2.5 2.5-2.5 2.5 1.1193 2.5 2.5zm1.5 0c0 2.2091-1.7909 4-4 4s-4-1.7909-4-4 1.7909-4 4-4 4 1.7909 4 4zm-6 5.25c-2.0711 0-3.75 1.6789-3.75 3.75v1h1.5v-1c0-1.2426 1.0074-2.25 2.25-2.25h4c1.2426 0 2.25 1.0074 2.25 2.25v1h1.5v-1c0-2.0711-1.6789-3.75-3.75-3.75h-4z" clip-rule="evenodd" fill="#2B2D42" fill-rule="evenodd"/>
</svg>
