<?xml version="1.0" encoding="UTF-8"?>
<svg fill="none" viewBox="0 0 90 18" xmlns="http://www.w3.org/2000/svg">
    <g clip-path="url(#b)">
        <g clip-path="url(#a)" fill="#FBC513">
            <path d="m8.1524 0.54187 1.8249 5.6164h5.9054l-4.7776 3.4711 1.8249 5.6164-4.7776-3.4712-4.7776 3.4712 1.8249-5.6164-4.7776-3.4711h5.9054l1.8249-5.6164z"/>
            <path d="m26.576 0.54187 1.825 5.6164h5.9053l-4.7776 3.4711 1.8249 5.6164-4.7776-3.4712-4.7776 3.4712 1.825-5.6164-4.7777-3.4711h5.9054l1.8249-5.6164z"/>
            <path d="m45 0.54187 1.8249 5.6164h5.9053l-4.7776 3.4711 1.825 5.6164-4.7776-3.4712-4.7776 3.4712 1.8249-5.6164-4.7776-3.4711h5.9053l1.825-5.6164z"/>
            <path d="m63.424 0.54187 1.8249 5.6164h5.9054l-4.7776 3.4711 1.8249 5.6164-4.7776-3.4712-4.7776 3.4712 1.8249-5.6164-4.7776-3.4711h5.9054l1.8249-5.6164z"/>
            <path d="m81.848 0.54187 1.8249 5.6164h5.9053l-4.7776 3.4711 1.825 5.6164-4.7776-3.4712-4.7776 3.4712 1.8249-5.6164-4.7776-3.4711h5.9053l1.825-5.6164z"/>
        </g>
    </g>
    <defs>
        <clipPath id="b">
            <rect width="90" height="17" fill="#fff"/>
        </clipPath>
        <clipPath id="a">
            <rect transform="translate(.024414)" width="89.951" height="17" fill="#fff"/>
        </clipPath>
    </defs>
</svg>
