<?xml version="1.0" encoding="UTF-8"?>
<svg fill="none" viewBox="0 0 51 50" xmlns="http://www.w3.org/2000/svg">
    <g clip-path="url(#c)">
        <g clip-path="url(#b)">
            <g clip-path="url(#a)">
                <path d="m25.984 49.02c13.536 0 24.51-10.974 24.51-24.51 0-13.536-10.973-24.51-24.51-24.51s-24.51 10.973-24.51 24.51c0 13.536 10.973 24.51 24.51 24.51z" fill="#696FFF"/>
                <path d="m11.278 16.433c1.887-2.4377 4.8589-1.0708 7.4738 0.1319 1.3671 0.6289 2.6368 1.2129 3.6027 1.1846 4.1316-0.1187 2.738 2.3831 2.0964 2.516-1.3047 0.2706-3.8369 0.7611-7.5983-2.459-1.924-1.6426-5.5746-1.3735-5.5746-1.3735zm5.5889 17.506c-3.0683-0.1194-6.0716-1.7333-4.9054-4.8981 1.2153-3.2862 4.7931-5.2642 8.3044-6.0222 1.758-0.3908 2.7469 0.1235 3.0062 1.5083 0.3926 2.076 0.5213 4.1074-0.3759 6.4056-1.3584 1.7907-3.3393 2.8324-6.0293 3.0064zm9.7886-3.3881c0.1389-1.0046 1.5083-3.7676 1.5083-3.7676 1.2149-1.3814 2.8325-1.6778 4.8973-0.7537 0 0 5.3843 3.3611 5.6518 5.276 0.1565 1.1185-1.4796 1.5667-2.6379 1.8833-2.0677 0.5769-4.551 0.4019-7.1583 0-1.4084-0.4889-2.4325-1.3926-2.2612-2.638zm3.5156-10.894c2.5045 1.1602 5.771 2.6735 10.519 1.7133 0 0-1.3786 1.0253-4.2519 1.7358-3.4089 0.8522-6.4351-0.5878-8.2753-1.4635-0.169-0.0805-0.3281-0.1562-0.4765-0.2249-0.4259-0.1962 0.8306-2.5223 2.0454-1.9638 0.1439 0.0661 0.2904 0.134 0.4396 0.2031z" clip-rule="evenodd" fill="#fff" fill-rule="evenodd"/>
            </g>
        </g>
    </g>
    <defs>
        <clipPath id="c">
            <rect transform="translate(.82007)" width="50" height="49.02" fill="#fff"/>
        </clipPath>
        <clipPath id="b">
            <rect transform="translate(.82007)" width="50" height="49.02" fill="#fff"/>
        </clipPath>
        <clipPath id="a">
            <rect transform="translate(.82007 .00024414)" width="50" height="49.02" fill="#fff"/>
        </clipPath>
    </defs>
</svg>
