<?xml version="1.0" encoding="UTF-8"?>
<svg fill="none" viewBox="0 0 66 66" xmlns="http://www.w3.org/2000/svg">
    <g clip-path="url(#a)">
        <path d="m33 66c18.225 0 33-14.775 33-33s-14.775-33-33-33-33 14.775-33 33 14.775 33 33 33z" fill="#696FFF"/>
        <path d="m27.967 23.614c-0.2784-0.3086-6.7279-0.3026-8.467 8.5458 0 0 0.961-2.148 3.4607-4.3515 1.8585-1.6377 4.1005-2.3881 5.1735-2.7473 0.3708-0.1241 0.602-0.2015 0.6296-0.2526 0.1064-0.1976-0.5083-0.876-0.7907-1.1877l-0.0061-0.0067zm18.91 8.3207c-1.7215-8.3903-8.1618-8.4083-8.4518-8.1157-0.2912 0.2926-0.9039 0.9356-0.7968 1.1287 0.0279 0.0503 0.2649 0.1266 0.6444 0.2488 1.0779 0.3471 3.3054 1.0642 5.1517 2.6058 2.4974 2.0841 3.4525 4.1324 3.4525 4.1324zm-8.0042 10.97c0.7073-0.2218 1.6633-0.5214 3.0177-0.4233 1.3207 0.0955 2.4077 0.4316 3.2329 0.6867 0.9157 0.2831 1.5092 0.4666 1.742 0.1112 1.5282-2.3226-0.1713-7.3138-0.2516-7.5119-1.4153-3.1157-3.2289-3.8384-4.502-3.894-0.7012-0.0262-1.3966 0.1332-2.0163 0.4622-0.6197 0.3289-1.1404 0.8157-1.5119 1.4109-1.9127 3.2149-1.8684 7.8963-1.4712 8.7349 0.3959 0.851 0.8897 0.6962 1.7604 0.4233zm-9.4574-0.6678c0.5311 0.2155 1.0425 0.4787 1.527 0.7862-0.7443-1.1578-1.8998-1.9883-3.2335-2.3249-1.3768-0.339-2.8107-0.3669-4.2003-0.0816-1.2417 0.2283-4.2341 2.346-3.9126 2.2411 0.4273-0.1427 1.586-0.3572 2.5746-0.5401 0.391-0.0724 0.7556-0.1399 1.0375-0.196 1.3814-0.2831 2.827-0.4904 4.2364-0.3413 0.6744 0.0652 1.3372 0.2178 1.9709 0.4566z" clip-rule="evenodd" fill="#fff" fill-rule="evenodd"/>
    </g>
    <defs>
        <clipPath id="a">
            <rect width="66" height="66" fill="#fff"/>
        </clipPath>
    </defs>
</svg>
